<svg xmlns="http://www.w3.org/2000/svg" xmlns:xlink="http://www.w3.org/1999/xlink" xmlns:lucid="lucid" width="1562.88" height="2360"><g transform="translate(70.875 0)" lucid:page-tab-id="0_0"><path d="M-1806.4 0h3676.8v2582.4h-3676.8z" fill="#fff"/><path d="M670 2280h240v60H670z" fill="none"/><use xlink:href="#a" transform="matrix(1,0,0,1,670,2280) translate(91.025 33.6)"/><use xlink:href="#b" transform="matrix(1,0,0,1,670,2280) translate(138.97500000000002 33.6)"/><path d="M380 180h240v60H380z" fill="none"/><use xlink:href="#a" transform="matrix(1,0,0,1,380,180) translate(91.025 33.6)"/><use xlink:href="#c" transform="matrix(1,0,0,1,380,180) translate(138.97500000000002 33.6)"/><path d="M-20 40h160v100H-20z" stroke="#000" stroke-width="2" fill="#ccc"/><use xlink:href="#d" transform="matrix(1,0,0,1,-15.000000000000014,45) translate(36.574999999999996 48.6)"/><path d="M600 90c0 38.66-49.25 70-110 70s-110-31.34-110-70 49.25-70 110-70 110 31.34 110 70z" stroke="#000" stroke-width="2" fill="#ffeca9"/><use xlink:href="#e" transform="matrix(1,0,0,1,385,25) translate(72.725 68.60000000000001)"/><path d="M226.7 65.67H141v-2h85.7zm141.33 0h-97.4v-2h97.4zM141 65.67h-1v-2h1zM383.03 64.67l-14.27 4.63v-9.27z"/><path d="M386.27 64.67l-18.5 6V58.66zm-16.5 3.26l10.02-3.26-10.04-3.26z"/><use xlink:href="#f" transform="matrix(1,0,0,1,226.6916666666667,53.86666666666669) translate(0 14.4)"/><path d="M392.48 123.97H159.24" stroke="#000" stroke-width="2" fill="none"/><path d="M393.3 123.4l1.4 1.57h-2.22v-2h.48z"/><path d="M144.24 123.97l14.26-4.63v9.27z" stroke="#000" stroke-width="2"/><use xlink:href="#g" transform="matrix(1,0,0,1,140.12499999999943,98.3735210718852) translate(0 14.4)"/><path d="M920 40h160v100H920z" stroke="#000" stroke-width="2" fill="#ccc"/><use xlink:href="#h" transform="matrix(1,0,0,1,925,45) translate(50.05 48.6)"/><path d="M704.3 120H591.35v-2H704.3zm196.46 0h-94.7v-2h94.7z"/><path d="M591.35 120h-1.94l.2-.25 1.23-1.75h.52zM915.76 119l-14.26 4.63v-9.27z"/><path d="M919 119l-18.5 6v-12zm-16.5 3.26l10.03-3.26-10.03-3.26z"/><use xlink:href="#g" transform="matrix(1,0,0,1,704.3014899730122,108.19830819587457) translate(0 14.4)"/><path d="M728.47 69.67H614.14v-2h114.33zm190.53 0H786.42v-2H919zM920 69.67h-1v-2h1zM613.4 73.3l-14.26-4.63 14.26-4.64z"/><path d="M614.4 74.68l-18.5-6 18.5-6.03zm-12.03-6l10.03 3.25V65.4z"/><use xlink:href="#i" transform="matrix(1,0,0,1,728.4746993519594,57.866666666666674) translate(0 14.4)"/><path d="M32 960h160v100H32z" stroke="#000" stroke-width="2" fill="#b2b2b2"/><use xlink:href="#j" transform="matrix(1,0,0,1,37,965) translate(56.55 48.6)"/><path d="M860 390c0 38.66-40.3 70-90 70s-90-31.34-90-70 40.3-70 90-70 90 31.34 90 70z" stroke="#000" stroke-width="2" fill="#c7e8ac"/><use xlink:href="#k" transform="matrix(1,0,0,1,685,325) translate(39.574999999999996 57.8)"/><use xlink:href="#l" transform="matrix(1,0,0,1,685,325) translate(103.475 57.8)"/><use xlink:href="#m" transform="matrix(1,0,0,1,685,325) translate(63.025 79.4)"/><path d="M880 1730c0 38.66-40.3 70-90 70s-90-31.34-90-70 40.3-70 90-70 90 31.34 90 70z" stroke="#000" stroke-width="2" fill="#c7e8ac"/><use xlink:href="#n" transform="matrix(1,0,0,1,705,1665) translate(62.05 68.60000000000001)"/><path d="M880 1370c0 38.66-40.3 70-90 70s-90-31.34-90-70 40.3-70 90-70 90 31.34 90 70z" stroke="#000" stroke-width="2" fill="#c7e8ac"/><use xlink:href="#o" transform="matrix(1,0,0,1,705,1305) translate(39.55 68.60000000000001)"/><use xlink:href="#p" transform="matrix(1,0,0,1,705,1305) translate(76.55 68.60000000000001)"/><use xlink:href="#q" transform="matrix(1,0,0,1,705,1305) translate(96.55 68.60000000000001)"/><path d="M860 1010c0 38.66-40.3 70-90 70s-90-31.34-90-70 40.3-70 90-70 90 31.34 90 70z" stroke="#000" stroke-width="2" fill="#c7e8ac"/><use xlink:href="#r" transform="matrix(1,0,0,1,685,945) translate(36.55 68.60000000000001)"/><use xlink:href="#s" transform="matrix(1,0,0,1,685,945) translate(98.5 68.60000000000001)"/><path d="M840 705c0 38.66-40.3 70-90 70s-90-31.34-90-70 40.3-70 90-70 90 31.34 90 70z" stroke="#000" stroke-width="2" fill="#c7e8ac"/><use xlink:href="#o" transform="matrix(1,0,0,1,665,640) translate(49.025 68.60000000000001)"/><use xlink:href="#s" transform="matrix(1,0,0,1,665,640) translate(86.025 68.60000000000001)"/><path d="M880 2090c0 38.66-40.3 70-90 70s-90-31.34-90-70 40.3-70 90-70 90 31.34 90 70z" stroke="#000" stroke-width="2" fill="#c7e8ac"/><use xlink:href="#t" transform="matrix(1,0,0,1,705,2025) translate(47.025 68.60000000000001)"/><path d="M240 480h160v100H240z" stroke="#000" stroke-width="2" fill="#b2b2b2"/><use xlink:href="#h" transform="matrix(1,0,0,1,245,485) translate(50.05 48.6)"/><path d="M541 500.33H401v-2h138V400.8h2zM660.76 391h-46.7v-2h46.7zM401 500.33h-1v-2h1zM675.76 390l-14.26 4.64v-9.28z"/><path d="M679 390l-18.5 6v-12zm-16.5 3.26l10.03-3.26-10.03-3.26z"/><use xlink:href="#g" transform="matrix(1,0,0,1,512.2956523998043,379.2) translate(0 14.4)"/><path d="M524.02 280H321v180.76h-2V278h205.02zM771 319h-2v-39H567.98v-2H771zM771 320.03l-1-.03h-1v-1h2zM320 475.76l-4.64-14.26h9.28z"/><path d="M320 479l-6-18.5h12zm-3.26-16.5l3.26 10.03 3.26-10.03z"/><use xlink:href="#f" transform="matrix(1,0,0,1,524.025,268.19997144409723) translate(0 14.4)"/><path d="M530.5 704h110.26v2H528.5V570.8h2zM400 561v-2h69.96v2zM655.76 705l-14.26 4.64v-9.28z"/><path d="M659 705l-18.5 6v-12zm-16.5 3.26l10.03-3.26-10.03-3.26z"/><use xlink:href="#o" transform="matrix(1,0,0,1,469.96119483703393,549.2) translate(0 14.4)"/><use xlink:href="#u" transform="matrix(1,0,0,1,469.96119483703393,549.2) translate(37 14.4)"/><use xlink:href="#s" transform="matrix(1,0,0,1,469.96119483703393,549.2) translate(77.9 14.4)"/><path d="M321 815h65.62v2H319V599.24h2zm430 2H488.37v-2H749v-39h2zM750 775h1v1h-2v-1.03zM324.64 598.5h-9.28l4.64-14.26z"/><path d="M326 599.5h-12l6-18.5zm-9.26-2h6.52L320 587.47z"/><use xlink:href="#g" transform="matrix(1,0,0,1,386.6249857220487,805.2000285559027) translate(0 14.4)"/><path d="M113 959h-2V289.8h2zm658-658.24h-2V280H567.98v-2H771zM524.02 280H171.88v-2h352.15zM113 960h-2v-1h2zM770 315.76l-4.64-14.26h9.28z"/><path d="M770 319l-6-18.5h12zm-3.26-16.5l3.26 10.03 3.26-10.03z"/><use xlink:href="#g" transform="matrix(1,0,0,1,70.12498572204856,268.19997144409723) translate(0 14.4)"/><path d="M-8 1009h20.76v2H-10V623.6h2zm78.12-729H-8v322h-2V278h80.12zM771 319h-2v-39H567.98v-2H771zm-246.98-39H171.88v-2h352.15zM771 320.03l-1-.03h-1v-1h2zM27.76 1010l-14.26 4.64v-9.28z"/><path d="M31 1010l-18.5 6v-12zm-16.5 3.26l10.03-3.26-10.03-3.26z"/><use xlink:href="#f" transform="matrix(1,0,0,1,-30.975,602.0075265073682) translate(0 14.4)"/><path d="M946.77 391H861v-2h85.77zm294 0h-144.2v-2h144.2zM861 391h-1.03l.03-1v-1h1zM1255.76 390l-14.26 4.64v-9.28z"/><path d="M1259 390l-18.5 6v-12zm-16.5 3.26l10.03-3.26-10.03-3.26z"/><use xlink:href="#v" transform="matrix(1,0,0,1,946.7743011730475,379.2) translate(0 14.4)"/><use xlink:href="#w" transform="matrix(1,0,0,1,946.7743011730475,379.2) translate(47.95 14.4)"/><use xlink:href="#x" transform="matrix(1,0,0,1,946.7743011730475,379.2) translate(82.95 14.4)"/><path d="M1420 330c-8.84 0-16 26.86-16 60s7.16 60 16 60h-144c-8.84 0-16-26.86-16-60s7.16-60 16-60z" stroke="#000" stroke-width="2" fill="#c1e4f7"/><use xlink:href="#y" transform="matrix(1,0,0,1,1265,335) translate(38.05 58.6)"/><use xlink:href="#z" transform="matrix(1,0,0,1,1265,335) translate(87 58.6)"/><path d="M383.57 1011H193v-2h190.57zm262.95 0h-158.1v-2h158.1zM193 1011h-1v-2h1z"/><path/><path/><use xlink:href="#r" transform="matrix(1,0,0,1,383.57498534111727,999.2) translate(0 14.4)"/><use xlink:href="#A" transform="matrix(1,0,0,1,383.57498534111727,999.2) translate(61.95 14.4)"/><use xlink:href="#B" transform="matrix(1,0,0,1,646.5249706822344,999.2) translate(0 14.4)"/><path d="M1420 645c-8.84 0-16 26.86-16 60s7.16 60 16 60h-144c-8.84 0-16-26.86-16-60s7.16-60 16-60z" stroke="#000" stroke-width="2" fill="#c1e4f7"/><use xlink:href="#C" transform="matrix(1,0,0,1,1265,650) translate(29.049999999999997 58.6)"/><use xlink:href="#z" transform="matrix(1,0,0,1,1265,650) translate(96 58.6)"/><path d="M1420 1310c-8.84 0-16 26.86-16 60s7.16 60 16 60h-144c-8.84 0-16-26.86-16-60s7.16-60 16-60z" stroke="#000" stroke-width="2" fill="#c1e4f7"/><use xlink:href="#f" transform="matrix(1,0,0,1,1265,1315) translate(53.025 58.6)"/><path d="M1420 1670c-8.84 0-16 26.86-16 60s7.16 60 16 60h-144c-8.84 0-16-26.86-16-60s7.16-60 16-60z" stroke="#000" stroke-width="2" fill="#c1e4f7"/><use xlink:href="#n" transform="matrix(1,0,0,1,1265,1675) translate(52.05 58.6)"/><path d="M1420 2030c-8.84 0-16 26.86-16 60s7.16 60 16 60h-144c-8.84 0-16-26.86-16-60s7.16-60 16-60z" stroke="#000" stroke-width="2" fill="#c1e4f7"/><use xlink:href="#D" transform="matrix(1,0,0,1,1265,2035) translate(21.099999999999994 58.6)"/><path d="M1008.52 706H841v-2h167.52zm232.24 0h-149.3v-2h149.3zM841 706h-1.03l.03-1v-1h1zM1255.76 705l-14.26 4.64v-9.28z"/><path d="M1259 705l-18.5 6v-12zm-16.5 3.26l10.03-3.26-10.03-3.26z"/><use xlink:href="#v" transform="matrix(1,0,0,1,1008.5247145509805,694.2) translate(0 14.4)"/><use xlink:href="#E" transform="matrix(1,0,0,1,1008.5247145509805,694.2) translate(47.95 14.4)"/><path d="M984.95 764h-144.1v200.5h-2V762h146.1zm267.35 0h-160.5v-2h160.5zM840.84 966.83l-.17-.18-1.83-1.7v-.44h2zM1267.3 763l-14.27 4.63v-9.27z"/><path d="M1270.53 763l-18.5 6v-12zm-16.5 3.26l10.03-3.26-10.03-3.26z"/><use xlink:href="#F" transform="matrix(1,0,0,1,984.9504872837031,752.1971898547938) translate(0 14.4)"/><use xlink:href="#E" transform="matrix(1,0,0,1,984.9504872837031,752.1971898547938) translate(71.85000000000001 14.4)"/><path d="M1280 960h160v100h-160z" stroke="#000" stroke-width="2" fill="#b2b2b2"/><use xlink:href="#G" transform="matrix(1,0,0,1,1285,965) translate(50.75 48.6)"/><path d="M1017.5 981.67H871.1v-2h146.37zm261.5 0h-164.6v-2H1279zM1280 981.67h-1v-2h1zM870.38 985.3l-14.26-4.63 14.26-4.64z"/><path d="M871.38 986.68l-18.5-6 18.5-6.03zm-12.03-6l10.03 3.25v-6.52z"/><use xlink:href="#r" transform="matrix(1,0,0,1,1017.4908823122321,969.8666666666667) translate(0 14.4)"/><use xlink:href="#s" transform="matrix(1,0,0,1,1017.4908823122321,969.8666666666667) translate(61.95 14.4)"/><path d="M1016.42 1035.15H855.6v-2h160.82zm244.34 0h-142.6v-2h142.6zM855.6 1035.15H854l.42-.84.52-1.15h.65zM1275.76 1034.15l-14.26 4.63v-9.27z"/><path d="M1279 1034.15l-18.5 6v-12zm-16.5 3.26l10.03-3.25-10.03-3.26z"/><use xlink:href="#g" transform="matrix(1,0,0,1,1016.4198143477834,1023.3480681955243) translate(0 14.4)"/><path d="M1103.48 1185.58H835.65v104.34h-2v-106.34h269.83zm257.52 0h-166.62v-2H1359V1061h2zM1361 1061h-2v-1h2zM834.65 1304.92l-4.64-14.27h9.28z"/><path d="M834.65 1308.15l-6-18.5h12zm-3.26-16.5l3.25 10.03 3.26-10.03z"/><use xlink:href="#o" transform="matrix(1,0,0,1,1103.4833333333336,1173.7773495980011) translate(0 14.4)"/><use xlink:href="#p" transform="matrix(1,0,0,1,1103.4833333333336,1173.7773495980011) translate(37 14.4)"/><use xlink:href="#q" transform="matrix(1,0,0,1,1103.4833333333336,1173.7773495980011) translate(57 14.4)"/><path d="M1028.52 1371H881v-2h147.52zm212.24 0h-129.3v-2h129.3zM881 1371h-1.03l.03-1v-1h1zM1255.76 1370l-14.26 4.64v-9.28z"/><path d="M1259 1370l-18.5 6v-12zm-16.5 3.26l10.03-3.26-10.03-3.26z"/><use xlink:href="#v" transform="matrix(1,0,0,1,1028.5247145509807,1359.2) translate(0 14.4)"/><use xlink:href="#E" transform="matrix(1,0,0,1,1028.5247145509807,1359.2) translate(47.95 14.4)"/><path d="M1028.52 1731H881v-2h147.52zm212.24 0h-129.3v-2h129.3zM881 1731h-1.03l.03-1v-1h1zM1255.76 1730l-14.26 4.64v-9.28z"/><path d="M1259 1730l-18.5 6v-12zm-16.5 3.26l10.03-3.26-10.03-3.26z"/><use xlink:href="#v" transform="matrix(1,0,0,1,1028.5247145509807,1719.2) translate(0 14.4)"/><use xlink:href="#E" transform="matrix(1,0,0,1,1028.5247145509807,1719.2) translate(47.95 14.4)"/><path d="M1028.52 2091H881v-2h147.52zm212.24 0h-129.3v-2h129.3zM881 2091h-1.03l.03-1v-1h1zM1255.76 2090l-14.26 4.64v-9.28z"/><path d="M1259 2090l-18.5 6v-12zm-16.5 3.26l10.03-3.26-10.03-3.26z"/><use xlink:href="#v" transform="matrix(1,0,0,1,1028.5247145509807,2079.2) translate(0 14.4)"/><use xlink:href="#E" transform="matrix(1,0,0,1,1028.5247145509807,2079.2) translate(47.95 14.4)"/><path d="M1098.06 1260H791v39h-2v-41h309.06zm383.94 0h-282.2v-2H1480v-201.67h-20.76v-2H1482zM791 1300.03l-1-.03h-1v-1h2z"/><path d="M1458.5 1059.97l-14.26-4.64 14.26-4.63z"/><path d="M1459.5 1061.35l-18.5-6.02 18.5-6zm-12.03-6.02l10.03 3.26v-6.53z"/><use xlink:href="#g" transform="matrix(1,0,0,1,1098.0583333333336,1248.1999714440974) translate(0 14.4)"/><path d="M452.22 1335.98h239v2h-241v-142.36h2zm0-161.96h-2v-140.35H193v-2h259.22zM193 1033.67h-1v-2h1zM706.2 1336.98l-14.26 4.63v-9.26z"/><path d="M709.44 1336.98l-18.5 6v-12.02zm-16.5 3.26l10.03-3.26-10.03-3.26z"/><use xlink:href="#o" transform="matrix(1,0,0,1,405.7706535619502,1174.0214513963465) translate(0 14.4)"/><use xlink:href="#p" transform="matrix(1,0,0,1,405.7706535619502,1174.0214513963465) translate(37 14.4)"/><use xlink:href="#q" transform="matrix(1,0,0,1,405.7706535619502,1174.0214513963465) translate(57 14.4)"/><path d="M791 1299h-2v-186.67H673.14v-2H791zm-321.54-186.67v-2H571.4v2zM791 1300.03l-1-.03h-1v-1h2zM468.72 1115.97l-14.26-4.64 14.26-4.63z"/><path d="M469.72 1117.35l-18.5-6.02 18.5-6zm-12.03-6.02l10.02 3.26v-6.53z"/><g><use xlink:href="#g" transform="matrix(1,0,0,1,571.3916666666667,1100.5333333333333) translate(0 14.4)"/></g><path d="M137.93 1711h564.03v2H135.93v-340.2h2zm0-359.8h-2v-33.07h2zm0-54.67h-2v-217.3h2zM703.1 1711.75l-.4 1.26h-.74v-2h1.4zM141.57 1078.5h-9.27l4.63-14.26z"/><path d="M142.95 1079.5h-12.03l6-18.5zm-9.28-2h6.52l-3.27-10.03z"/><g><use xlink:href="#g" transform="matrix(1,0,0,1,86.0583333333334,1351.2) translate(0 14.4)"/></g><path d="M175.27 1692.96h518.1v2h-520.1V1372.8h2zm0-341.76h-2v-33.07h2zm0-54.67h-2V1061h2zM175.27 1061h-2v-1h2zM708.36 1693.96l-14.26 4.64v-9.27z"/><path d="M711.6 1693.96l-18.5 6v-12zm-16.5 3.26l10.03-3.26-10.03-3.26z"/><g><use xlink:href="#H" transform="matrix(1,0,0,1,126.34166666666687,1296.5333333333333) translate(0 14.4)"/><use xlink:href="#I" transform="matrix(1,0,0,1,126.34166666666687,1296.5333333333333) translate(49.95 14.4)"/></g><path d="M57.93 2089h622.83v2H55.93v-183.67h2zm0-203.27h-2V1061h2zM57.93 1061h-2v-1h2zM695.76 2090l-14.26 4.64v-9.28z"/><path d="M699 2090l-18.5 6v-12zm-16.5 3.26l10.03-3.26-10.03-3.26z"/><g><use xlink:href="#J" transform="matrix(1,0,0,1,-12.016666666666609,1885.7333186744506) translate(0 14.4)"/><use xlink:href="#K" transform="matrix(1,0,0,1,-12.016666666666609,1885.7333186744506) translate(36 14.4)"/><use xlink:href="#L" transform="matrix(1,0,0,1,-12.016666666666609,1885.7333186744506) translate(61.95 14.4)"/></g><path d="M-8 2126.24h720.53v2H-10v-187.4h2zm0-207h-2v-11.9h2zm20.76-866.9H-8v833.4h-2v-835.4h22.76zM713.84 2127.32l.8.92h-2.1v-2h.48zM27.76 1051.33l-14.26 4.64v-9.27z"/><path d="M31 1051.33l-18.5 6.02v-12.03zm-16.5 3.26l10.03-3.27-10.03-3.26z"/><g><use xlink:href="#g" transform="matrix(1,0,0,1,-59.87500000000001,1919.2518340596473) translate(0 14.4)"/></g><defs><path d="M30 0v-248h33v221h125V0H30" id="M"/><path d="M100-194c63 0 86 42 84 106H49c0 40 14 67 53 68 26 1 43-12 49-29l28 8c-11 28-37 45-77 45C44 4 14-33 15-96c1-61 26-98 85-98zm52 81c6-60-76-77-97-28-3 7-6 17-6 28h103" id="N"/><path d="M108 0H70L1-190h34L89-25l56-165h34" id="O"/><path d="M24 0v-261h32V0H24" id="P"/><g id="a"><use transform="matrix(0.05,0,0,0.05,0,0)" xlink:href="#M"/><use transform="matrix(0.05,0,0,0.05,10,0)" xlink:href="#N"/><use transform="matrix(0.05,0,0,0.05,20,0)" xlink:href="#O"/><use transform="matrix(0.05,0,0,0.05,29,0)" xlink:href="#N"/><use transform="matrix(0.05,0,0,0.05,39,0)" xlink:href="#P"/></g><path d="M27 0v-27h64v-190l-56 39v-29l58-41h29v221h61V0H27" id="Q"/><use transform="matrix(0.05,0,0,0.05,0,0)" xlink:href="#Q" id="b"/><path d="M101-251c68 0 85 55 85 127S166 4 100 4C33 4 14-52 14-124c0-73 17-127 87-127zm-1 229c47 0 54-49 54-102s-4-102-53-102c-51 0-55 48-55 102 0 53 5 102 54 102" id="R"/><use transform="matrix(0.05,0,0,0.05,0,0)" xlink:href="#R" id="c"/><path d="M212-179c-10-28-35-45-73-45-59 0-87 40-87 99 0 60 29 101 89 101 43 0 62-24 78-52l27 14C228-24 195 4 139 4 59 4 22-46 18-125c-6-104 99-153 187-111 19 9 31 26 39 46" id="S"/><path d="M84 4C-5 8 30-112 23-190h32v120c0 31 7 50 39 49 72-2 45-101 50-169h31l1 190h-30c-1-10 1-25-2-33-11 22-28 36-60 37" id="T"/><path d="M135-143c-3-34-86-38-87 0 15 53 115 12 119 90S17 21 10-45l28-5c4 36 97 45 98 0-10-56-113-15-118-90-4-57 82-63 122-42 12 7 21 19 24 35" id="U"/><path d="M59-47c-2 24 18 29 38 22v24C64 9 27 4 27-40v-127H5v-23h24l9-43h21v43h35v23H59v120" id="V"/><path d="M100-194c62-1 85 37 85 99 1 63-27 99-86 99S16-35 15-95c0-66 28-99 85-99zM99-20c44 1 53-31 53-75 0-43-8-75-51-75s-53 32-53 75 10 74 51 75" id="W"/><path d="M210-169c-67 3-38 105-44 169h-31v-121c0-29-5-50-35-48C34-165 62-65 56 0H25l-1-190h30c1 10-1 24 2 32 10-44 99-50 107 0 11-21 27-35 58-36 85-2 47 119 55 194h-31v-121c0-29-5-49-35-48" id="X"/><path d="M114-163C36-179 61-72 57 0H25l-1-190h30c1 12-1 29 2 39 6-27 23-49 58-41v29" id="Y"/><g id="d"><use transform="matrix(0.05,0,0,0.05,0,0)" xlink:href="#S"/><use transform="matrix(0.05,0,0,0.05,12.950000000000001,0)" xlink:href="#T"/><use transform="matrix(0.05,0,0,0.05,22.950000000000003,0)" xlink:href="#U"/><use transform="matrix(0.05,0,0,0.05,31.950000000000003,0)" xlink:href="#V"/><use transform="matrix(0.05,0,0,0.05,36.95,0)" xlink:href="#W"/><use transform="matrix(0.05,0,0,0.05,46.95,0)" xlink:href="#X"/><use transform="matrix(0.05,0,0,0.05,61.900000000000006,0)" xlink:href="#N"/><use transform="matrix(0.05,0,0,0.05,71.9,0)" xlink:href="#Y"/></g><path d="M266 0h-40l-56-210L115 0H75L2-248h35L96-30l15-64 43-154h32l59 218 59-218h35" id="Z"/><path d="M115-194c53 0 69 39 70 98 0 66-23 100-70 100C84 3 66-7 56-30L54 0H23l1-261h32v101c10-23 28-34 59-34zm-8 174c40 0 45-34 45-75 0-40-5-75-45-74-42 0-51 32-51 76 0 43 10 73 51 73" id="aa"/><path d="M24-231v-30h32v30H24zM24 0v-190h32V0H24" id="ab"/><g id="e"><use transform="matrix(0.05,0,0,0.05,0,0)" xlink:href="#Z"/><use transform="matrix(0.05,0,0,0.05,16.599999999999998,0)" xlink:href="#N"/><use transform="matrix(0.05,0,0,0.05,26.599999999999994,0)" xlink:href="#aa"/><use transform="matrix(0.05,0,0,0.05,36.599999999999994,0)" xlink:href="#U"/><use transform="matrix(0.05,0,0,0.05,45.599999999999994,0)" xlink:href="#ab"/><use transform="matrix(0.05,0,0,0.05,49.55,0)" xlink:href="#V"/><use transform="matrix(0.05,0,0,0.05,54.54999999999999,0)" xlink:href="#N"/></g><path d="M177-190C167-65 218 103 67 71c-23-6-38-20-44-43l32-5c15 47 100 32 89-28v-30C133-14 115 1 83 1 29 1 15-40 15-95c0-56 16-97 71-98 29-1 48 16 59 35 1-10 0-23 2-32h30zM94-22c36 0 50-32 50-73 0-42-14-75-50-75-39 0-46 34-46 75s6 73 46 73" id="ac"/><path d="M117-194c89-4 53 116 60 194h-32v-121c0-31-8-49-39-48C34-167 62-67 57 0H25l-1-190h30c1 10-1 24 2 32 11-22 29-35 61-36" id="ad"/><g id="f"><use transform="matrix(0.05,0,0,0.05,0,0)" xlink:href="#M"/><use transform="matrix(0.05,0,0,0.05,10,0)" xlink:href="#W"/><use transform="matrix(0.05,0,0,0.05,20,0)" xlink:href="#ac"/><use transform="matrix(0.05,0,0,0.05,30,0)" xlink:href="#ab"/><use transform="matrix(0.05,0,0,0.05,33.95,0)" xlink:href="#ad"/></g><path d="M101-234c-31-9-42 10-38 44h38v23H63V0H32v-167H5v-23h27c-7-52 17-82 69-68v24" id="ae"/><path d="M141-36C126-15 110 5 73 4 37 3 15-17 15-53c-1-64 63-63 125-63 3-35-9-54-41-54-24 1-41 7-42 31l-33-3c5-37 33-52 76-52 45 0 72 20 72 64v82c-1 20 7 32 28 27v20c-31 9-61-2-59-35zM48-53c0 20 12 33 32 33 41-3 63-29 60-74-43 2-92-5-92 41" id="af"/><g id="g"><use transform="matrix(0.05,0,0,0.05,0,0)" xlink:href="#S"/><use transform="matrix(0.05,0,0,0.05,12.950000000000001,0)" xlink:href="#W"/><use transform="matrix(0.05,0,0,0.05,22.950000000000003,0)" xlink:href="#ad"/><use transform="matrix(0.05,0,0,0.05,32.95,0)" xlink:href="#ae"/><use transform="matrix(0.05,0,0,0.05,37.95,0)" xlink:href="#ab"/><use transform="matrix(0.05,0,0,0.05,41.900000000000006,0)" xlink:href="#Y"/><use transform="matrix(0.05,0,0,0.05,47.85000000000001,0)" xlink:href="#X"/><use transform="matrix(0.05,0,0,0.05,62.80000000000001,0)" xlink:href="#af"/><use transform="matrix(0.05,0,0,0.05,72.80000000000001,0)" xlink:href="#V"/><use transform="matrix(0.05,0,0,0.05,77.80000000000001,0)" xlink:href="#ab"/><use transform="matrix(0.05,0,0,0.05,81.75000000000001,0)" xlink:href="#W"/><use transform="matrix(0.05,0,0,0.05,91.75000000000001,0)" xlink:href="#ad"/></g><path d="M205 0l-28-72H64L36 0H1l101-248h38L239 0h-34zm-38-99l-47-123c-12 45-31 82-46 123h93" id="ag"/><path d="M85-194c31 0 48 13 60 33l-1-100h32l1 261h-30c-2-10 0-23-3-31C134-8 116 4 85 4 32 4 16-35 15-94c0-66 23-100 70-100zm9 24c-40 0-46 34-46 75 0 40 6 74 45 74 42 0 51-32 51-76 0-42-9-74-50-73" id="ah"/><g id="h"><use transform="matrix(0.05,0,0,0.05,0,0)" xlink:href="#ag"/><use transform="matrix(0.05,0,0,0.05,12,0)" xlink:href="#ah"/><use transform="matrix(0.05,0,0,0.05,22,0)" xlink:href="#X"/><use transform="matrix(0.05,0,0,0.05,36.95,0)" xlink:href="#ab"/><use transform="matrix(0.05,0,0,0.05,40.900000000000006,0)" xlink:href="#ad"/></g><path d="M232-93c-1 65-40 97-104 97C67 4 28-28 28-90v-158h33c8 89-33 224 67 224 102 0 64-133 71-224h33v155" id="ai"/><path d="M115-194c55 1 70 41 70 98S169 2 115 4C84 4 66-9 55-30l1 105H24l-1-265h31l2 30c10-21 28-34 59-34zm-8 174c40 0 45-34 45-75s-6-73-45-74c-42 0-51 32-51 76 0 43 10 73 51 73" id="aj"/><g id="i"><use transform="matrix(0.05,0,0,0.05,0,0)" xlink:href="#ai"/><use transform="matrix(0.05,0,0,0.05,12.950000000000001,0)" xlink:href="#aj"/><use transform="matrix(0.05,0,0,0.05,22.950000000000003,0)" xlink:href="#ah"/><use transform="matrix(0.05,0,0,0.05,32.95,0)" xlink:href="#af"/><use transform="matrix(0.05,0,0,0.05,42.95,0)" xlink:href="#V"/><use transform="matrix(0.05,0,0,0.05,47.95,0)" xlink:href="#N"/></g><g id="j"><use transform="matrix(0.05,0,0,0.05,0,0)" xlink:href="#ai"/><use transform="matrix(0.05,0,0,0.05,12.950000000000001,0)" xlink:href="#U"/><use transform="matrix(0.05,0,0,0.05,21.950000000000003,0)" xlink:href="#N"/><use transform="matrix(0.05,0,0,0.05,31.950000000000003,0)" xlink:href="#Y"/></g><path d="M185-189c-5-48-123-54-124 2 14 75 158 14 163 119 3 78-121 87-175 55-17-10-28-26-33-46l33-7c5 56 141 63 141-1 0-78-155-14-162-118-5-82 145-84 179-34 5 7 8 16 11 25" id="ak"/><g id="k"><use transform="matrix(0.05,0,0,0.05,0,0)" xlink:href="#ak"/><use transform="matrix(0.05,0,0,0.05,12,0)" xlink:href="#ab"/><use transform="matrix(0.05,0,0,0.05,15.949999999999998,0)" xlink:href="#ac"/><use transform="matrix(0.05,0,0,0.05,25.950000000000003,0)" xlink:href="#ad"/><use transform="matrix(0.05,0,0,0.05,35.95,0)" xlink:href="#ai"/><use transform="matrix(0.05,0,0,0.05,48.900000000000006,0)" xlink:href="#aj"/></g><path d="M140-251c81 0 123 46 123 126C263-46 219 4 140 4 59 4 17-45 17-125s42-126 123-126zm0 227c63 0 89-41 89-101s-29-99-89-99c-61 0-89 39-89 99S79-25 140-24" id="al"/><path d="M233-177c-1 41-23 64-60 70L243 0h-38l-65-103H63V0H30v-248c88 3 205-21 203 71zM63-129c60-2 137 13 137-47 0-61-80-42-137-45v92" id="am"/><g id="l"><use transform="matrix(0.05,0,0,0.05,0,0)" xlink:href="#al"/><use transform="matrix(0.05,0,0,0.05,14,0)" xlink:href="#am"/></g><g id="m"><use transform="matrix(0.05,0,0,0.05,0,0)" xlink:href="#M"/><use transform="matrix(0.05,0,0,0.05,10,0)" xlink:href="#W"/><use transform="matrix(0.05,0,0,0.05,20,0)" xlink:href="#ac"/><use transform="matrix(0.05,0,0,0.05,30,0)" xlink:href="#ab"/><use transform="matrix(0.05,0,0,0.05,33.95,0)" xlink:href="#ad"/></g><g id="n"><use transform="matrix(0.05,0,0,0.05,0,0)" xlink:href="#al"/><use transform="matrix(0.05,0,0,0.05,14,0)" xlink:href="#Y"/><use transform="matrix(0.05,0,0,0.05,19.95,0)" xlink:href="#ah"/><use transform="matrix(0.05,0,0,0.05,29.950000000000003,0)" xlink:href="#N"/><use transform="matrix(0.05,0,0,0.05,39.95,0)" xlink:href="#Y"/></g><g id="o"><use transform="matrix(0.05,0,0,0.05,0,0)" xlink:href="#ag"/><use transform="matrix(0.05,0,0,0.05,12,0)" xlink:href="#ah"/><use transform="matrix(0.05,0,0,0.05,22,0)" xlink:href="#ah"/></g><g id="p"><use transform="matrix(0.05,0,0,0.05,0,0)" xlink:href="#V"/><use transform="matrix(0.05,0,0,0.05,5,0)" xlink:href="#W"/></g><g id="q"><use transform="matrix(0.05,0,0,0.05,0,0)" xlink:href="#S"/><use transform="matrix(0.05,0,0,0.05,12.950000000000001,0)" xlink:href="#af"/><use transform="matrix(0.05,0,0,0.05,22.950000000000003,0)" xlink:href="#Y"/><use transform="matrix(0.05,0,0,0.05,28.900000000000002,0)" xlink:href="#V"/></g><path d="M96-169c-40 0-48 33-48 73s9 75 48 75c24 0 41-14 43-38l32 2c-6 37-31 61-74 61-59 0-76-41-82-99-10-93 101-131 147-64 4 7 5 14 7 22l-32 3c-4-21-16-35-41-35" id="an"/><path d="M106-169C34-169 62-67 57 0H25v-261h32l-1 103c12-21 28-36 61-36 89 0 53 116 60 194h-32v-121c2-32-8-49-39-48" id="ao"/><g id="r"><use transform="matrix(0.05,0,0,0.05,0,0)" xlink:href="#ak"/><use transform="matrix(0.05,0,0,0.05,12,0)" xlink:href="#N"/><use transform="matrix(0.05,0,0,0.05,22,0)" xlink:href="#af"/><use transform="matrix(0.05,0,0,0.05,32,0)" xlink:href="#Y"/><use transform="matrix(0.05,0,0,0.05,37.95,0)" xlink:href="#an"/><use transform="matrix(0.05,0,0,0.05,46.95,0)" xlink:href="#ao"/></g><path d="M33 0v-248h34V0H33" id="ap"/><g id="s"><use transform="matrix(0.05,0,0,0.05,0,0)" xlink:href="#ap"/><use transform="matrix(0.05,0,0,0.05,5,0)" xlink:href="#V"/><use transform="matrix(0.05,0,0,0.05,10,0)" xlink:href="#N"/><use transform="matrix(0.05,0,0,0.05,20,0)" xlink:href="#X"/></g><path d="M30-248c87 1 191-15 191 75 0 78-77 80-158 76V0H30v-248zm33 125c57 0 124 11 124-50 0-59-68-47-124-48v98" id="aq"/><g id="t"><use transform="matrix(0.05,0,0,0.05,0,0)" xlink:href="#aq"/><use transform="matrix(0.05,0,0,0.05,12,0)" xlink:href="#T"/><use transform="matrix(0.05,0,0,0.05,22,0)" xlink:href="#Y"/><use transform="matrix(0.05,0,0,0.05,27.950000000000003,0)" xlink:href="#an"/><use transform="matrix(0.05,0,0,0.05,36.95,0)" xlink:href="#ao"/><use transform="matrix(0.05,0,0,0.05,46.95,0)" xlink:href="#af"/><use transform="matrix(0.05,0,0,0.05,56.95,0)" xlink:href="#U"/><use transform="matrix(0.05,0,0,0.05,65.95,0)" xlink:href="#N"/></g><path d="M190 0L58-211 59 0H30v-248h39L202-35l-2-213h31V0h-41" id="ar"/><path d="M206 0h-36l-40-164L89 0H53L-1-190h32L70-26l43-164h34l41 164 42-164h31" id="as"/><g id="u"><use transform="matrix(0.05,0,0,0.05,0,0)" xlink:href="#ar"/><use transform="matrix(0.05,0,0,0.05,12.950000000000001,0)" xlink:href="#N"/><use transform="matrix(0.05,0,0,0.05,22.950000000000003,0)" xlink:href="#as"/></g><g id="v"><use transform="matrix(0.05,0,0,0.05,0,0)" xlink:href="#ak"/><use transform="matrix(0.05,0,0,0.05,12,0)" xlink:href="#V"/><use transform="matrix(0.05,0,0,0.05,17,0)" xlink:href="#W"/><use transform="matrix(0.05,0,0,0.05,27,0)" xlink:href="#Y"/><use transform="matrix(0.05,0,0,0.05,32.95,0)" xlink:href="#N"/></g><g id="w"><use transform="matrix(0.05,0,0,0.05,0,0)" xlink:href="#af"/><use transform="matrix(0.05,0,0,0.05,10,0)" xlink:href="#ad"/><use transform="matrix(0.05,0,0,0.05,20,0)" xlink:href="#ah"/></g><g id="x"><use transform="matrix(0.05,0,0,0.05,0,0)" xlink:href="#am"/><use transform="matrix(0.05,0,0,0.05,12.950000000000001,0)" xlink:href="#N"/><use transform="matrix(0.05,0,0,0.05,22.950000000000003,0)" xlink:href="#V"/><use transform="matrix(0.05,0,0,0.05,27.950000000000003,0)" xlink:href="#Y"/><use transform="matrix(0.05,0,0,0.05,33.900000000000006,0)" xlink:href="#ab"/><use transform="matrix(0.05,0,0,0.05,37.85000000000001,0)" xlink:href="#N"/><use transform="matrix(0.05,0,0,0.05,47.85000000000001,0)" xlink:href="#O"/><use transform="matrix(0.05,0,0,0.05,56.85,0)" xlink:href="#N"/></g><g id="y"><use transform="matrix(0.05,0,0,0.05,0,0)" xlink:href="#M"/><use transform="matrix(0.05,0,0,0.05,10,0)" xlink:href="#W"/><use transform="matrix(0.05,0,0,0.05,20,0)" xlink:href="#ac"/><use transform="matrix(0.05,0,0,0.05,30,0)" xlink:href="#ab"/><use transform="matrix(0.05,0,0,0.05,33.95,0)" xlink:href="#ad"/></g><path d="M30-248c118-7 216 8 213 122C240-48 200 0 122 0H30v-248zM63-27c89 8 146-16 146-99s-60-101-146-95v194" id="at"/><path d="M160-131c35 5 61 23 61 61C221 17 115-2 30 0v-248c76 3 177-17 177 60 0 33-19 50-47 57zm-97-11c50-1 110 9 110-42 0-47-63-36-110-37v79zm0 115c55-2 124 14 124-45 0-56-70-42-124-44v89" id="au"/><g id="z"><use transform="matrix(0.05,0,0,0.05,0,0)" xlink:href="#at"/><use transform="matrix(0.05,0,0,0.05,12.950000000000001,0)" xlink:href="#au"/></g><path d="M127-220V0H93v-220H8v-28h204v28h-85" id="av"/><path d="M30 0v-248h187v28H63v79h144v27H63v87h162V0H30" id="aw"/><path d="M240 0l2-218c-23 76-54 145-80 218h-23L58-218 59 0H30v-248h44l77 211c21-75 51-140 76-211h43V0h-30" id="ax"/><g id="A"><use transform="matrix(0.05,0,0,0.05,0,0)" xlink:href="#ap"/><use transform="matrix(0.05,0,0,0.05,5,0)" xlink:href="#av"/><use transform="matrix(0.05,0,0,0.05,15.950000000000001,0)" xlink:href="#aw"/><use transform="matrix(0.05,0,0,0.05,27.950000000000003,0)" xlink:href="#ax"/></g><path d="M141 0L90-78 38 0H4l68-98-65-92h35l48 74 47-74h35l-64 92 68 98h-35" id="ay"/><g id="B"><use transform="matrix(0.05,0,0,0.05,0,0)" xlink:href="#av"/><use transform="matrix(0.05,0,0,0.05,8.950000000000001,0)" xlink:href="#N"/><use transform="matrix(0.05,0,0,0.05,18.950000000000003,0)" xlink:href="#ay"/><use transform="matrix(0.05,0,0,0.05,27.950000000000003,0)" xlink:href="#V"/></g><g id="C"><use transform="matrix(0.05,0,0,0.05,0,0)" xlink:href="#aq"/><use transform="matrix(0.05,0,0,0.05,12,0)" xlink:href="#Y"/><use transform="matrix(0.05,0,0,0.05,17.95,0)" xlink:href="#W"/><use transform="matrix(0.05,0,0,0.05,27.950000000000003,0)" xlink:href="#ah"/><use transform="matrix(0.05,0,0,0.05,37.95,0)" xlink:href="#T"/><use transform="matrix(0.05,0,0,0.05,47.95,0)" xlink:href="#an"/><use transform="matrix(0.05,0,0,0.05,56.95,0)" xlink:href="#V"/></g><path d="M-5 72V49h209v23H-5" id="az"/><g id="D"><use transform="matrix(0.05,0,0,0.05,0,0)" xlink:href="#al"/><use transform="matrix(0.05,0,0,0.05,14,0)" xlink:href="#Y"/><use transform="matrix(0.05,0,0,0.05,19.95,0)" xlink:href="#ah"/><use transform="matrix(0.05,0,0,0.05,29.950000000000003,0)" xlink:href="#N"/><use transform="matrix(0.05,0,0,0.05,39.95,0)" xlink:href="#Y"/><use transform="matrix(0.05,0,0,0.05,45.900000000000006,0)" xlink:href="#az"/><use transform="matrix(0.05,0,0,0.05,55.900000000000006,0)" xlink:href="#ah"/><use transform="matrix(0.05,0,0,0.05,65.9,0)" xlink:href="#N"/><use transform="matrix(0.05,0,0,0.05,75.9,0)" xlink:href="#V"/><use transform="matrix(0.05,0,0,0.05,80.9,0)" xlink:href="#af"/><use transform="matrix(0.05,0,0,0.05,90.9,0)" xlink:href="#ab"/><use transform="matrix(0.05,0,0,0.05,94.85000000000001,0)" xlink:href="#P"/><use transform="matrix(0.05,0,0,0.05,98.80000000000001,0)" xlink:href="#U"/></g><g id="E"><use transform="matrix(0.05,0,0,0.05,0,0)" xlink:href="#ah"/><use transform="matrix(0.05,0,0,0.05,10,0)" xlink:href="#af"/><use transform="matrix(0.05,0,0,0.05,20,0)" xlink:href="#V"/><use transform="matrix(0.05,0,0,0.05,25,0)" xlink:href="#af"/></g><g id="F"><use transform="matrix(0.05,0,0,0.05,0,0)" xlink:href="#am"/><use transform="matrix(0.05,0,0,0.05,12.950000000000001,0)" xlink:href="#N"/><use transform="matrix(0.05,0,0,0.05,22.950000000000003,0)" xlink:href="#V"/><use transform="matrix(0.05,0,0,0.05,27.950000000000003,0)" xlink:href="#Y"/><use transform="matrix(0.05,0,0,0.05,33.900000000000006,0)" xlink:href="#ab"/><use transform="matrix(0.05,0,0,0.05,37.85000000000001,0)" xlink:href="#N"/><use transform="matrix(0.05,0,0,0.05,47.85000000000001,0)" xlink:href="#O"/><use transform="matrix(0.05,0,0,0.05,56.85,0)" xlink:href="#N"/></g><path d="M137 0h-34L2-248h35l83 218 83-218h36" id="aA"/><g id="G"><use transform="matrix(0.05,0,0,0.05,0,0)" xlink:href="#aA"/><use transform="matrix(0.05,0,0,0.05,11.65,0)" xlink:href="#ab"/><use transform="matrix(0.05,0,0,0.05,15.600000000000001,0)" xlink:href="#U"/><use transform="matrix(0.05,0,0,0.05,24.6,0)" xlink:href="#ab"/><use transform="matrix(0.05,0,0,0.05,28.55,0)" xlink:href="#V"/><use transform="matrix(0.05,0,0,0.05,33.55,0)" xlink:href="#W"/><use transform="matrix(0.05,0,0,0.05,43.55,0)" xlink:href="#Y"/></g><g id="H"><use transform="matrix(0.05,0,0,0.05,0,0)" xlink:href="#aq"/><use transform="matrix(0.05,0,0,0.05,12,0)" xlink:href="#P"/><use transform="matrix(0.05,0,0,0.05,15.949999999999998,0)" xlink:href="#af"/><use transform="matrix(0.05,0,0,0.05,25.950000000000003,0)" xlink:href="#an"/><use transform="matrix(0.05,0,0,0.05,34.95,0)" xlink:href="#N"/></g><g id="I"><use transform="matrix(0.05,0,0,0.05,0,0)" xlink:href="#al"/><use transform="matrix(0.05,0,0,0.05,14,0)" xlink:href="#Y"/><use transform="matrix(0.05,0,0,0.05,19.95,0)" xlink:href="#ah"/><use transform="matrix(0.05,0,0,0.05,29.950000000000003,0)" xlink:href="#N"/><use transform="matrix(0.05,0,0,0.05,39.95,0)" xlink:href="#Y"/></g><path d="M179-190L93 31C79 59 56 82 12 73V49c39 6 53-20 64-50L1-190h34L92-34l54-156h33" id="aB"/><g id="J"><use transform="matrix(0.05,0,0,0.05,0,0)" xlink:href="#aq"/><use transform="matrix(0.05,0,0,0.05,12,0)" xlink:href="#af"/><use transform="matrix(0.05,0,0,0.05,22,0)" xlink:href="#aB"/></g><g id="K"><use transform="matrix(0.05,0,0,0.05,0,0)" xlink:href="#ae"/><use transform="matrix(0.05,0,0,0.05,5,0)" xlink:href="#W"/><use transform="matrix(0.05,0,0,0.05,15,0)" xlink:href="#Y"/></g><g id="L"><use transform="matrix(0.05,0,0,0.05,0,0)" xlink:href="#aq"/><use transform="matrix(0.05,0,0,0.05,12,0)" xlink:href="#T"/><use transform="matrix(0.05,0,0,0.05,22,0)" xlink:href="#Y"/><use transform="matrix(0.05,0,0,0.05,27.950000000000003,0)" xlink:href="#an"/><use transform="matrix(0.05,0,0,0.05,36.95,0)" xlink:href="#ao"/><use transform="matrix(0.05,0,0,0.05,46.95,0)" xlink:href="#af"/><use transform="matrix(0.05,0,0,0.05,56.95,0)" xlink:href="#U"/><use transform="matrix(0.05,0,0,0.05,65.95,0)" xlink:href="#N"/></g></defs></g></svg>